<svg width="102" height="102" viewBox="0 0 102 102" fill="none" xmlns="http://www.w3.org/2000/svg">
<rect x="1" y="41" width="10" height="10" stroke="#C4C4C4"/>
<rect x="11" y="41" width="10" height="10" stroke="#C4C4C4"/>
<rect x="21" y="41" width="10" height="10" stroke="#C4C4C4"/>
<rect x="31" y="41" width="10" height="10" stroke="#C4C4C4"/>
<rect x="41" y="41" width="10" height="10" stroke="#C4C4C4"/>
<rect x="51" y="41" width="10" height="10" stroke="#C4C4C4"/>
<rect x="61" y="41" width="10" height="10" stroke="#C4C4C4"/>
<rect x="71" y="41" width="10" height="10" stroke="#C4C4C4"/>
<rect x="81" y="41" width="10" height="10" stroke="#C4C4C4"/>
<rect x="91" y="41" width="10" height="10" stroke="#C4C4C4"/>
<rect x="1" y="31" width="10" height="10" stroke="#C4C4C4"/>
<rect x="11" y="31" width="10" height="10" stroke="#C4C4C4"/>
<rect x="21" y="31" width="10" height="10" stroke="#C4C4C4"/>
<rect x="31" y="31" width="10" height="10" stroke="#C4C4C4"/>
<rect x="41" y="31" width="10" height="10" stroke="#C4C4C4"/>
<rect x="51" y="31" width="10" height="10" stroke="#C4C4C4"/>
<rect x="61" y="31" width="10" height="10" stroke="#C4C4C4"/>
<rect x="71" y="31" width="10" height="10" stroke="#C4C4C4"/>
<rect x="81" y="31" width="10" height="10" stroke="#C4C4C4"/>
<rect x="91" y="31" width="10" height="10" stroke="#C4C4C4"/>
<rect x="1" y="21" width="10" height="10" stroke="#C4C4C4"/>
<rect x="11" y="21" width="10" height="10" stroke="#C4C4C4"/>
<rect x="21" y="21" width="10" height="10" stroke="#C4C4C4"/>
<rect x="31" y="21" width="10" height="10" stroke="#C4C4C4"/>
<rect x="41" y="21" width="10" height="10" stroke="#C4C4C4"/>
<rect x="51" y="21" width="10" height="10" stroke="#C4C4C4"/>
<rect x="61" y="21" width="10" height="10" stroke="#C4C4C4"/>
<rect x="71" y="21" width="10" height="10" stroke="#C4C4C4"/>
<rect x="81" y="21" width="10" height="10" stroke="#C4C4C4"/>
<rect x="91" y="21" width="10" height="10" stroke="#C4C4C4"/>
<rect x="1" y="11" width="10" height="10" stroke="#C4C4C4"/>
<rect x="11" y="11" width="10" height="10" stroke="#C4C4C4"/>
<rect x="21" y="11" width="10" height="10" stroke="#C4C4C4"/>
<rect x="31" y="11" width="10" height="10" stroke="#C4C4C4"/>
<rect x="41" y="11" width="10" height="10" stroke="#C4C4C4"/>
<rect x="51" y="11" width="10" height="10" stroke="#C4C4C4"/>
<rect x="61" y="11" width="10" height="10" stroke="#C4C4C4"/>
<rect x="71" y="11" width="10" height="10" stroke="#C4C4C4"/>
<rect x="81" y="11" width="10" height="10" stroke="#C4C4C4"/>
<rect x="91" y="11" width="10" height="10" stroke="#C4C4C4"/>
<rect x="1" y="1" width="10" height="10" stroke="#C4C4C4"/>
<rect x="11" y="1" width="10" height="10" stroke="#C4C4C4"/>
<rect x="21" y="1" width="10" height="10" stroke="#C4C4C4"/>
<rect x="31" y="1" width="10" height="10" stroke="#C4C4C4"/>
<rect x="41" y="1" width="10" height="10" stroke="#C4C4C4"/>
<rect x="51" y="1" width="10" height="10" stroke="#C4C4C4"/>
<rect x="61" y="1" width="10" height="10" stroke="#C4C4C4"/>
<rect x="71" y="1" width="10" height="10" stroke="#C4C4C4"/>
<rect x="81" y="1" width="10" height="10" stroke="#C4C4C4"/>
<rect x="91" y="1" width="10" height="10" stroke="#C4C4C4"/>
<rect x="1" y="61" width="10" height="10" stroke="#C4C4C4"/>
<rect x="11" y="61" width="10" height="10" stroke="#C4C4C4"/>
<rect x="21" y="61" width="10" height="10" stroke="#C4C4C4"/>
<rect x="31" y="61" width="10" height="10" stroke="#C4C4C4"/>
<rect x="41" y="61" width="10" height="10" stroke="#C4C4C4"/>
<rect x="51" y="61" width="10" height="10" stroke="#C4C4C4"/>
<rect x="61" y="61" width="10" height="10" stroke="#C4C4C4"/>
<rect x="71" y="61" width="10" height="10" stroke="#C4C4C4"/>
<rect x="81" y="61" width="10" height="10" stroke="#C4C4C4"/>
<rect x="91" y="61" width="10" height="10" stroke="#C4C4C4"/>
<rect x="1" y="51" width="10" height="10" stroke="#C4C4C4"/>
<rect x="11" y="51" width="10" height="10" stroke="#C4C4C4"/>
<rect x="21" y="51" width="10" height="10" stroke="#C4C4C4"/>
<rect x="31" y="51" width="10" height="10" stroke="#C4C4C4"/>
<rect x="41" y="51" width="10" height="10" stroke="#C4C4C4"/>
<rect x="51" y="51" width="10" height="10" stroke="#C4C4C4"/>
<rect x="61" y="51" width="10" height="10" stroke="#C4C4C4"/>
<rect x="71" y="51" width="10" height="10" stroke="#C4C4C4"/>
<rect x="81" y="51" width="10" height="10" stroke="#C4C4C4"/>
<rect x="91" y="51" width="10" height="10" stroke="#C4C4C4"/>
<rect x="1" y="71" width="10" height="10" stroke="#C4C4C4"/>
<rect x="11" y="71" width="10" height="10" stroke="#C4C4C4"/>
<rect x="21" y="71" width="10" height="10" stroke="#C4C4C4"/>
<rect x="31" y="71" width="10" height="10" stroke="#C4C4C4"/>
<rect x="41" y="71" width="10" height="10" stroke="#C4C4C4"/>
<rect x="51" y="71" width="10" height="10" stroke="#C4C4C4"/>
<rect x="61" y="71" width="10" height="10" stroke="#C4C4C4"/>
<rect x="71" y="71" width="10" height="10" stroke="#C4C4C4"/>
<rect x="81" y="71" width="10" height="10" stroke="#C4C4C4"/>
<rect x="91" y="71" width="10" height="10" stroke="#C4C4C4"/>
<rect x="1" y="81" width="10" height="10" stroke="#C4C4C4"/>
<rect x="11" y="81" width="10" height="10" stroke="#C4C4C4"/>
<rect x="21" y="81" width="10" height="10" stroke="#C4C4C4"/>
<rect x="31" y="81" width="10" height="10" stroke="#C4C4C4"/>
<rect x="41" y="81" width="10" height="10" stroke="#C4C4C4"/>
<rect x="51" y="81" width="10" height="10" stroke="#C4C4C4"/>
<rect x="61" y="81" width="10" height="10" stroke="#C4C4C4"/>
<rect x="71" y="81" width="10" height="10" stroke="#C4C4C4"/>
<rect x="81" y="81" width="10" height="10" stroke="#C4C4C4"/>
<rect x="91" y="81" width="10" height="10" stroke="#C4C4C4"/>
<rect x="1" y="91" width="10" height="10" stroke="#C4C4C4"/>
<rect x="11" y="91" width="10" height="10" stroke="#C4C4C4"/>
<rect x="21" y="91" width="10" height="10" stroke="#C4C4C4"/>
<rect x="31" y="91" width="10" height="10" stroke="#C4C4C4"/>
<rect x="41" y="91" width="10" height="10" stroke="#C4C4C4"/>
<rect x="51" y="91" width="10" height="10" stroke="#C4C4C4"/>
<rect x="61" y="91" width="10" height="10" stroke="#C4C4C4"/>
<rect x="71" y="91" width="10" height="10" stroke="#C4C4C4"/>
<rect x="81" y="91" width="10" height="10" stroke="#C4C4C4"/>
<rect x="91" y="91" width="10" height="10" stroke="#C4C4C4"/>
</svg>
